<?xml version="1.0" encoding="iso-8859-1"?>
<!-- Generator: Adobe Illustrator 18.1.0, SVG Export Plug-In . SVG Version: 6.00 Build 0)  -->
<svg version="1.1" id="Layer_1" class="shell" xmlns="http://www.w3.org/2000/svg" xmlns:xlink="http://www.w3.org/1999/xlink" x="0px" y="0px"
	 viewBox="0 0 4096 4096" style="enable-background:new 0 0 4096 4096;" xml:space="preserve">
<g>
	<path style="fill:#FFFFFF;stroke:#000000;stroke-miterlimit:10;" d="M131.45,428.819c18.145-23.383,35.555-46.077,53.244-68.552
		c23.351-29.669,50.023-56.226,78.642-80.698c28.659-24.506,59.926-45.496,93.107-63.432
		c33.434-18.072,68.215-33.252,104.312-45.172c35.402-11.691,71.411-21.387,108.305-26.926c32.486-4.878,65.138-8.781,97.807-12.272
		c38.015-4.063,76.184-5.965,114.44-6.164c32.287-0.169,64.573-1.242,96.857-1.151c28.607,0.081,57.213,1.176,85.817,1.898
		c23.941,0.604,47.875,1.552,71.819,1.927c40.616,0.637,81.244,1.618,121.854,1.195c39.181-0.408,78.343-2.422,117.317-6.997
		c30.004-3.522,60.057-6.654,90.025-10.458c19.762-2.509,39.415-5.88,59.11-8.91c7.619-1.172,8.837-0.678,10.234,6.695
		c15.193,80.193,40.443,157.775,61.343,236.483c19.378,72.974,36.495,146.455,50.193,220.714
		c12.177,66.008,23.794,132.123,36.518,198.024c12.739,65.975,27.186,131.582,49.548,195.142
		c13.729,39.024,29.776,76.956,52.506,111.765c28.846,44.176,69.061,70.914,121.122,80.135c40.496,7.173,78.054-0.707,113.399-20.81
		c36.446-20.729,73.029-41.236,109.084-62.629c29.262-17.361,54.277-39.552,71.628-69.414
		c14.505-24.964,24.223-51.742,30.163-79.939c6.263-29.733,7.983-59.921,8.384-90.174c0.295-22.313,0.048-44.65-0.665-66.954
		c-0.955-29.891-2.567-59.762-3.946-89.639c-1.286-27.881-2.797-55.753-3.908-83.64c-0.914-22.93-1.431-45.876-2.044-68.817
		c-0.506-18.951-1.675-37.926-1.174-56.854c1.091-41.162,2.821-82.278,8.72-123.165c4.028-27.914,6.319-56.086,9.062-84.175
		c1.129-11.561,1.382-23.206,2.095-34.809c0.118-1.929,0.547-3.838,0.972-6.697c3.478-0.216,6.674-0.64,9.86-0.579
		c41.928,0.812,83.865,2.694,125.777,2.233c32.503-0.358,64.993-3.358,97.452-5.681c25.499-1.825,50.974-4.111,76.404-6.726
		c40.275-4.142,80.5-8.769,120.754-13.117c26.406-2.852,52.81-5.736,79.243-8.313c29.403-2.867,58.802-5.932,88.269-7.937
		c31.158-2.12,62.387-3.282,93.599-4.504c24.594-0.963,49.208-1.86,73.815-1.898c21.938-0.034,43.884,0.997,65.815,1.849
		c15.937,0.62,31.887,1.33,47.775,2.669c54.086,4.558,107.375,13.684,159.691,28.349c43.99,12.331,86.778,27.919,127.926,47.736
		c39.658,19.099,77.754,41.045,113.049,67.426c28.248,21.114,55.804,43.157,83.582,64.897c7.133,5.583,7.313,6.838,0.698,11.893
		c-28.248,21.585-46.89,50.667-63.155,81.388c-26.787,50.597-52.803,101.602-79.392,152.305
		c-15.621,29.788-32.391,58.93-51.895,86.393c-4.221,5.944-6.16,12.316-6.29,19.497c-0.781,43.327-6.642,86.03-15.321,128.441
		c-17.756,86.767-41.391,171.974-68.357,256.25c-16.521,51.63-33.377,103.215-52.255,154.012
		c-17.14,46.121-36.562,91.435-56.137,136.603c-43.653,100.72-88.358,200.985-132,301.71
		c-29.37,67.783-56.294,136.565-79.394,206.774c-20.913,63.561-38.314,128.109-50.026,193.99
		c-7.029,39.535-12.288,79.431-16.959,119.326c-4.361,37.241-6.959,74.691-10.211,112.06c-2.764,31.749-4.681,63.586-8.171,95.253
		c-6.109,55.43-12.21,110.891-20.052,166.092c-7.196,50.652-17.126,100.893-28.437,150.824
		c-12.791,56.466-28.003,112.272-45.443,167.476c-20.362,64.453-44.189,127.636-71.281,189.522
		c-18.275,41.746-38.352,82.65-60.21,122.734c-17.897,32.821-37.634,64.44-58.805,95.07c-19.073,27.594-39.056,54.749-63.325,78.293
		c-4.054,3.933-7.734,8.255-11.546,12.434c-24.218,26.558-54.026,46.305-82.648,67.445c-12.637,9.333-24.386,19.307-35.018,30.985
		c-28.381,31.177-60.504,57.885-96.727,79.792c-59.812,36.173-123.591,62.038-192.211,75.442
		c-20.174,3.941-40.662,6.435-61.092,8.859c-19.443,2.307-38.973,4.592-58.515,5.168c-19.869,0.585-39.808-0.724-59.699-1.614
		c-9.261-0.414-18.465-1.965-27.718-2.71c-40.709-3.281-80.039-13.191-118.375-26.528c-29.51-10.267-57.908-23.421-85.121-39.096
		c-31.889-18.367-61.288-39.914-88.076-65.097c-8.726-8.203-17.417-16.459-26.463-24.3c-3.712-3.219-8.217-5.587-12.538-8.029
		c-24.048-13.586-48.429-26.611-72.116-40.797c-11.641-6.971-21.91-16.202-33.015-24.108
		c-20.422-14.539-38.309-31.947-56.298-49.241c-46.018-44.238-85.394-94.009-121.385-146.536
		c-28.994-42.315-55.631-86.097-79.44-131.544c-16.062-30.659-32.612-61.126-47.135-92.516
		c-28.213-60.98-56.109-122.142-82.411-183.963c-47.279-111.129-92.812-222.998-135.116-336.13
		c-23.883-63.868-46.397-128.246-69.658-192.347c-21.219-58.475-42.728-116.844-63.902-175.335
		c-23.664-65.37-47.037-130.845-70.645-196.235c-17.96-49.748-36.306-99.357-54.086-149.169
		c-19.234-53.888-38.343-107.826-56.89-161.954c-17.363-50.676-34.488-101.448-50.694-152.502
		c-23.646-74.492-47.467-148.958-69.201-224.017c-23.58-81.436-45.673-163.33-66.822-245.434
		c-12.679-49.222-23.061-99.078-33.081-148.929c-8.375-41.667-14.7-83.745-22.021-125.625c-0.565-3.23-1.295-6.635-2.854-9.457
		c-29.295-53.008-58.08-106.313-88.333-158.771c-24.658-42.756-54.548-81.995-86.546-119.554
		C149.008,446.41,140.556,438.36,131.45,428.819z"/>
	<path style="fill:#FFFFFF;stroke:#000000;stroke-miterlimit:10;" d="M3805.667,1501.13c0.293,40.568-1.83,81.034-7.169,121.271
		c-6.071,45.751-11.906,91.543-18.812,137.171c-6.911,45.652-15.117,91.108-22.573,136.679
		c-5.899,36.058-11.809,72.119-17.182,108.257c-4.833,32.503-9.222,65.079-13.261,97.69c-2.244,18.118-3.83,36.347-4.896,54.574
		c-1.726,29.523-2.886,59.081-4.076,88.633c-0.669,16.61-1.801,33.27-1.186,49.851c1.587,42.798,3.275,85.56,8.753,128.167
		c9.116,70.9,27.153,139.607,48.702,207.481c14.091,44.383,30.118,88.152,44.121,132.561
		c12.795,40.579,25.107,81.374,35.628,122.586c8.865,34.723,15.703,70.046,18.448,105.937c1.621,21.19,3.083,42.401,4.098,63.627
		c0.857,17.933,1.665,35.918,1.24,53.85c-0.583,24.565-1.969,49.129-3.691,73.646c-3.841,54.706-11.659,108.889-21.071,162.917
		c-10.797,61.98-26.091,122.906-40.782,183.993c-1.302,5.415-3.851,9.487-8.302,13.063c-39.357,31.614-82.409,56.211-131.374,69.573
		c-31.287,8.538-63.119,13.671-95.619,10.839c-27.396-2.387-53.29-10.827-78.362-22.019c-30.739-13.722-57.162-33.755-82.65-55.296
		c-8.888-7.512-18.373-14.314-27.397-21.67c-2.468-2.012-5.016-4.53-6.242-7.37c-16.347-37.854-33.018-75.583-48.484-113.799
		c-14.968-36.986-29.053-74.346-42.776-111.816c-17.412-47.545-30.543-96.426-41.392-145.804
		c-8.48-38.595-15.039-77.639-21.478-116.645c-4.215-25.529-7.519-51.273-9.725-77.051c-2.406-28.123-3.19-56.389-4.453-84.603
		c-0.699-15.608-1.806-31.272-1.19-46.849c1.245-31.518,2.875-63.05,5.547-94.474c4.561-53.619,11.969-106.903,21.349-159.899
		c13.26-74.921,27.024-149.757,39.716-224.774c8.476-50.098,16.001-100.373,22.967-150.706
		c7.373-53.272,13.847-106.673,20.214-160.078c5.697-47.792,10.888-95.647,15.972-143.509c3.646-34.328,6.642-68.724,10.122-103.07
		c4.552-44.914,8.826-89.863,14.08-134.696c6.068-51.781,13.178-103.424,22.884-154.695c5.435-28.715,9.646-57.661,14.661-86.459
		c0.518-2.975,2.099-6.409,4.311-8.346c26.565-23.261,53.46-46.19,85.058-62.539c27.659-14.311,56.753-24.248,87.946-27.789
		c27.404-3.111,53.525,2.914,79.489,10.054c27.243,7.491,52.542,19.517,74.418,37.427c11.245,9.206,21.157,20.245,30.669,31.316
		c16.321,18.996,29.709,40.088,41.019,62.436c1.581,3.124,2.532,6.896,2.61,10.394
		C3805.845,1474.484,3805.667,1487.809,3805.667,1501.13z"/>
</g>
<rect y="0" style="fill:none;stroke:#000000;stroke-miterlimit:10;" width="4096" height="4096"/>
</svg>
