<?xml version="1.0" encoding="utf-8" ?>
<svg baseProfile="full" height="2048" version="1.1" width="2048" xmlns="http://www.w3.org/2000/svg" xmlns:ev="http://www.w3.org/2001/xml-events" xmlns:xlink="http://www.w3.org/1999/xlink"><defs /><path d="M17105 20289 c-111 -111 -221 -211 -265 -241 -41 -28 -120 -84 -175 -124 -147 -106 -187 -126 -351 -182 -227 -78 -301 -98 -534 -147 -285 -60 -344 -77 -469 -135 -119 -55 -185 -74 -418 -125 -318 -70 -471 -127 -608 -230 -40 -29 -98 -62 -135 -74 -36 -13 -110 -43 -165 -67 -96 -42 -555 -166 -905 -244 -129 -29 -209 -54 -615 -195 -132 -46 -278 -94 -325 -108 -47 -14 -204 -66 -350 -115 -279 -95 -732 -243 -960 -313 -74 -22 -207 -56 -295 -74 -168 -34 -618 -147 -840 -210 -71 -20 -183 -49 -248 -65 -66 -16 -156 -40 -200 -54 -45 -14 -111 -32 -147 -41 -36 -9 -96 -30 -135 -47 -38 -16 -135 -51 -215 -77 -80 -27 -194 -70 -255 -96 -60 -26 -224 -87 -363 -136 -326 -115 -584 -213 -800 -306 -145 -62 -195 -89 -305 -167 -101 -72 -196 -126 -407 -231 -398 -199 -630 -335 -970 -566 -80 -55 -242 -164 -361 -242 -542 -358 -945 -708 -1304 -1132 -231 -272 -453 -569 -650 -870 -82 -125 -106 -152 -211 -246 -66 -59 -207 -194 -314 -300 -175 -174 -205 -200 -295 -251 -55 -31 -152 -91 -215 -134 -63 -42 -154 -103 -203 -136 -48 -32 -87 -62 -87 -67 0 -5 14 -31 31 -57 17 -27 54 -89 81 -139 164 -293 397 -579 617 -757 264 -213 604 -366 874 -394 37 -4 67 -10 67 -14 0 -4 -28 -15 -62 -25 -99 -27 -253 -91 -378 -156 -390 -204 -750 -526 -1086 -972 -102 -135 -142 -204 -127 -218 24 -21 318 -229 438 -309 76 -51 169 -121 205 -154 36 -34 178 -155 315 -271 333 -280 324 -270 428 -419 271 -387 600 -773 897 -1053 172 -161 263 -236 575 -468 219 -164 287 -221 362 -302 165 -180 518 -458 798 -630 154 -95 408 -235 593 -327 318 -159 797 -359 1022 -425 41 -13 124 -51 185 -86 109 -63 480 -226 870 -382 347 -140 487 -185 683 -223 57 -11 144 -32 194 -46 243 -68 588 -109 1258 -149 653 -40 811 -63 1175 -172 263 -79 824 -303 1230 -491 387 -179 818 -359 990 -415 307 -99 694 -201 895 -237 270 -48 447 -61 635 -47 222 16 269 14 355 -12 113 -34 258 -109 315 -161 28 -26 98 -85 156 -131 142 -113 261 -208 377 -302 53 -43 135 -104 182 -136 47 -33 123 -94 170 -138 47 -43 163 -145 258 -227 134 -115 176 -146 192 -141 24 8 223 245 368 440 344 459 624 960 910 1625 149 346 284 650 382 860 91 195 422 851 565 1120 99 186 141 277 132 286 -3 3 -90 37 -194 75 -507 187 -1015 501 -1298 803 -322 344 -632 801 -1132 1671 -244 425 -362 605 -727 1105 -356 489 -561 733 -862 1031 -241 238 -344 315 -472 355 -221 68 -447 46 -634 -63 -171 -99 -355 -287 -1045 -1069 -420 -477 -705 -674 -1053 -728 -475 -75 -2081 -85 -2460 -16 -58 10 -177 28 -265 40 -408 53 -1147 199 -1740 345 -385 94 -459 127 -549 242 -98 125 -349 570 -487 863 -139 296 -169 371 -169 418 0 111 206 805 290 977 93 191 214 289 480 388 140 52 581 191 685 216 50 11 218 52 375 91 1207 294 1322 318 1645 335 61 3 173 15 250 25 939 128 1556 142 1894 44 140 -40 344 -162 521 -312 144 -121 534 -502 860 -840 189 -196 396 -409 460 -472 256 -257 402 -342 661 -383 77 -12 95 -12 173 4 79 16 95 23 184 87 70 50 151 125 293 273 184 192 219 235 573 707 408 544 448 603 809 1182 535 859 849 1293 1236 1709 313 335 776 688 1201 916 91 48 167 89 169 91 2 2 -5 34 -17 71 -11 38 -43 154 -71 258 -54 199 -151 520 -278 915 -192 600 -401 1048 -707 1515 -293 447 -559 726 -1137 1191 l-166 134 -69 -1 -69 0 -190 -190z M9585 4413 c-38 -1 -203 -9 -365 -17 -432 -22 -519 -25 -1255 -41 -677 -15 -878 -24 -1105 -50 -69 -8 -192 -19 -275 -25 -82 -5 -217 -17 -300 -25 -434 -45 -744 -54 -1185 -35 -129 6 -437 17 -685 25 -247 8 -578 25 -735 37 -238 18 -365 21 -770 22 -720 0 -852 -13 -1638 -161 -101 -20 -107 -26 -76 -85 15 -29 15 -31 -11 -58 -46 -48 -56 -103 -75 -405 -17 -274 -59 -426 -163 -583 -87 -132 -165 -293 -176 -364 -12 -76 6 -249 35 -336 27 -82 119 -268 195 -398 158 -267 190 -429 155 -779 -16 -157 -14 -193 13 -243 9 -17 6 -25 -19 -52 -50 -53 -44 -60 108 -130 326 -149 567 -219 917 -267 115 -16 223 -18 960 -18 865 0 812 1 1525 -50 113 -8 437 -19 720 -25 697 -13 732 -16 1210 -96 533 -89 615 -98 925 -98 302 1 428 15 750 89 498 114 816 126 1250 50 76 -13 266 -31 405 -38 36 -2 120 0 188 5 205 14 326 70 473 221 171 174 301 427 363 707 57 261 72 469 82 1136 10 679 -14 885 -142 1242 -55 152 -164 382 -229 483 -123 191 -279 314 -447 354 -59 14 -380 18 -623 8z" fill="#ffffff" id="Default" stroke="#000000" stroke-width="0.5" transform="translate(0, 2048), scale(0.1, -0.1)" /></svg>